REM DIRINDEX 1\2,1\3
REM DIRNAME cjc039,folder01,folder02
TITLE ""
FILE "3301-3320.mp3" MP3
  TRACK 01 AUDIO
    TITLE "0:"
    INDEX 01 00:00:00
  TRACK 02 AUDIO
    TITLE "2:cjc039_5601"
    INDEX 01 00:00:25
  TRACK 03 AUDIO
    TITLE "0:"
    INDEX 01 00:01:34
  TRACK 04 AUDIO
    TITLE "3:cjc039_5602"
    INDEX 01 00:02:14
  TRACK 05 AUDIO
    TITLE "0:"
    INDEX 01 00:05:28
  TRACK 06 AUDIO
    TITLE "2:cjc039_5603"
    INDEX 01 00:07:07
  TRACK 07 AUDIO
    TITLE "0:"
    INDEX 01 00:08:58
  TRACK 08 AUDIO
    TITLE "3:cjc039_5604"
    INDEX 01 00:09:34
  TRACK 09 AUDIO
    TITLE "0:"
    INDEX 01 00:13:51
  TRACK 10 AUDIO
    TITLE "2:cjc039_5605"
    INDEX 01 00:15:30
  TRACK 11 AUDIO
    TITLE "0:"
    INDEX 01 00:16:36
  TRACK 12 AUDIO
    TITLE "3:cjc039_5606"
    INDEX 01 00:17:20
  TRACK 13 AUDIO
    TITLE "0:"
    INDEX 01 00:20:28
  TRACK 14 AUDIO
    TITLE "2:cjc039_5607"
    INDEX 01 00:22:07
  TRACK 15 AUDIO
    TITLE "0:"
    INDEX 01 00:23:12
  TRACK 16 AUDIO
    TITLE "3:cjc039_5608"
    INDEX 01 00:23:65
  TRACK 17 AUDIO
    TITLE "0:"
    INDEX 01 00:27:49
  TRACK 18 AUDIO
    TITLE "2:cjc039_5609"
    INDEX 01 00:29:25
  TRACK 19 AUDIO
    TITLE "0:"
    INDEX 01 00:30:14
  TRACK 20 AUDIO
    TITLE "3:cjc039_5610"
    INDEX 01 00:30:65
  TRACK 21 AUDIO
    TITLE "0:"
    INDEX 01 00:33:52
  TRACK 22 AUDIO
    TITLE "2:cjc039_5611"
    INDEX 01 00:35:27
  TRACK 23 AUDIO
    TITLE "0:"
    INDEX 01 00:36:54
  TRACK 24 AUDIO
    TITLE "3:cjc039_5612"
    INDEX 01 00:37:30
  TRACK 25 AUDIO
    TITLE "0:"
    INDEX 01 00:40:64
  TRACK 26 AUDIO
    TITLE "2:cjc039_5613"
    INDEX 01 00:42:43
  TRACK 27 AUDIO
    TITLE "0:"
    INDEX 01 00:43:56
  TRACK 28 AUDIO
    TITLE "3:cjc039_5614"
    INDEX 01 00:44:38
  TRACK 29 AUDIO
    TITLE "0:"
    INDEX 01 00:48:16
  TRACK 30 AUDIO
    TITLE "2:cjc039_5615"
    INDEX 01 00:49:65
  TRACK 31 AUDIO
    TITLE "0:"
    INDEX 01 00:51:20
  TRACK 32 AUDIO
    TITLE "3:cjc039_5616"
    INDEX 01 00:51:73
  TRACK 33 AUDIO
    TITLE "0:"
    INDEX 01 00:54:66
  TRACK 34 AUDIO
    TITLE "2:cjc039_5617"
    INDEX 01 00:56:41
  TRACK 35 AUDIO
    TITLE "0:"
    INDEX 01 00:57:37
  TRACK 36 AUDIO
    TITLE "3:cjc039_5618"
    INDEX 01 00:58:18
  TRACK 37 AUDIO
    TITLE "0:"
    INDEX 01 01:01:52
  TRACK 38 AUDIO
    TITLE "2:cjc039_5619"
    INDEX 01 01:03:33
  TRACK 39 AUDIO
    TITLE "0:"
    INDEX 01 01:04:68
  TRACK 40 AUDIO
    TITLE "3:cjc039_5620"
    INDEX 01 01:05:46
  TRACK 41 AUDIO
    TITLE "0:"
    INDEX 01 01:10:10
  TRACK 42 AUDIO
    TITLE "2:cjc039_5621"
    INDEX 01 01:11:60
  TRACK 43 AUDIO
    TITLE "0:"
    INDEX 01 01:13:22
  TRACK 44 AUDIO
    TITLE "3:cjc039_5622"
    INDEX 01 01:14:02
  TRACK 45 AUDIO
    TITLE "0:"
    INDEX 01 01:17:43
  TRACK 46 AUDIO
    TITLE "2:cjc039_5623"
    INDEX 01 01:19:21
  TRACK 47 AUDIO
    TITLE "0:"
    INDEX 01 01:20:65
  TRACK 48 AUDIO
    TITLE "3:cjc039_5624"
    INDEX 01 01:21:47
  TRACK 49 AUDIO
    TITLE "0:"
    INDEX 01 01:25:39
  TRACK 50 AUDIO
    TITLE "2:cjc039_5625"
    INDEX 01 01:27:16
  TRACK 51 AUDIO
    TITLE "0:"
    INDEX 01 01:28:16
  TRACK 52 AUDIO
    TITLE "3:cjc039_5626"
    INDEX 01 01:28:67
  TRACK 53 AUDIO
    TITLE "0:"
    INDEX 01 01:32:51
  TRACK 54 AUDIO
    TITLE "2:cjc039_5627"
    INDEX 01 01:34:22
  TRACK 55 AUDIO
    TITLE "0:"
    INDEX 01 01:35:39
  TRACK 56 AUDIO
    TITLE "3:cjc039_5628"
    INDEX 01 01:36:15
  TRACK 57 AUDIO
    TITLE "0:"
    INDEX 01 01:39:29
  TRACK 58 AUDIO
    TITLE "2:cjc039_5629"
    INDEX 01 01:41:01
  TRACK 59 AUDIO
    TITLE "0:"
    INDEX 01 01:42:10
  TRACK 60 AUDIO
    TITLE "3:cjc039_5630"
    INDEX 01 01:42:63
  TRACK 61 AUDIO
    TITLE "0:"
    INDEX 01 01:46:23
  TRACK 62 AUDIO
    TITLE "2:cjc039_5631"
    INDEX 01 01:48:05
  TRACK 63 AUDIO
    TITLE "0:"
    INDEX 01 01:49:22
  TRACK 64 AUDIO
    TITLE "3:cjc039_5632"
    INDEX 01 01:50:04
  TRACK 65 AUDIO
    TITLE "0:"
    INDEX 01 01:53:63
  TRACK 66 AUDIO
    TITLE "2:cjc039_5633"
    INDEX 01 01:55:46
  TRACK 67 AUDIO
    TITLE "0:"
    INDEX 01 01:56:61
  TRACK 68 AUDIO
    TITLE "3:cjc039_5634"
    INDEX 01 01:57:41
  TRACK 69 AUDIO
    TITLE "0:"
    INDEX 01 02:00:57
  TRACK 70 AUDIO
    TITLE "2:cjc039_5635"
    INDEX 01 02:02:34
  TRACK 71 AUDIO
    TITLE "0:"
    INDEX 01 02:04:00
  TRACK 72 AUDIO
    TITLE "3:cjc039_5636"
    INDEX 01 02:04:55
  TRACK 73 AUDIO
    TITLE "0:"
    INDEX 01 02:08:43
  TRACK 74 AUDIO
    TITLE "2:cjc039_5637"
    INDEX 01 02:10:20
  TRACK 75 AUDIO
    TITLE "0:"
    INDEX 01 02:11:35
  TRACK 76 AUDIO
    TITLE "3:cjc039_5638"
    INDEX 01 02:12:17
  TRACK 77 AUDIO
    TITLE "0:"
    INDEX 01 02:15:31
  TRACK 78 AUDIO
    TITLE "2:cjc039_5639"
    INDEX 01 02:17:02
  TRACK 79 AUDIO
    TITLE "0:"
    INDEX 01 02:18:33
  TRACK 80 AUDIO
    TITLE "3:cjc039_5640"
    INDEX 01 02:19:15
  TRACK 81 AUDIO
    TITLE "0:"
    INDEX 01 02:23:38
